<svg xmlns="http://www.w3.org/2000/svg" viewBox="0 0 30 30"><title>Icon - Music</title><g id="Camada_1" data-name="Camada 1"><path d="M15,28.45A13.45,13.45,0,1,1,28.45,15,13.47,13.47,0,0,1,15,28.45Zm0-25.9A12.45,12.45,0,1,0,27.45,15,12.47,12.47,0,0,0,15,2.55Zm5.65,4.81h-.08l-9,2.93a.26.26,0,0,0-.17.24v8.17a2.23,2.23,0,0,0-1.32-.42,2.33,2.33,0,1,0,2.33,2.33V13.79l7.46-2.44V17a2.36,2.36,0,0,0-1.33-.42,2.33,2.33,0,1,0,2.33,2.33V7.61A.25.25,0,0,0,20.65,7.36ZM10.11,22a1.33,1.33,0,1,1,1.32-1.35v0h0A1.34,1.34,0,0,1,10.11,22Zm8.46-1.74a1.33,1.33,0,1,1,1.33-1.35v0h0A1.34,1.34,0,0,1,18.57,20.21ZM19.9,9.72v.58l-7.46,2.44V11.46h0v-.38L19.9,8.64V9.72Z"/></g></svg>