<svg xmlns="http://www.w3.org/2000/svg" viewBox="0 0 214.42 77.91"><defs><style>.cls-1{fill:#262424;}</style></defs><title>Logo</title><g id="Camada_1" data-name="Camada 1"><path class="cls-1" d="M11.17,74.39H2.82v-48h8.35v3.38a16.73,16.73,0,0,1,11.21-4.25,16.83,16.83,0,0,1,12.28,4.73,15.7,15.7,0,0,1,4.9,11.85A15.46,15.46,0,0,1,34.7,53.72a16.86,16.86,0,0,1-12.17,4.63A16.79,16.79,0,0,1,11.17,54ZM31,42.1A9.7,9.7,0,0,0,21,32a10.31,10.31,0,0,0-7.46,2.75,9.54,9.54,0,0,0-2.86,7.22,9.74,9.74,0,0,0,2.86,7.22A10.12,10.12,0,0,0,21,51.94a9.74,9.74,0,0,0,7.16-2.81A9.4,9.4,0,0,0,31,42.1Z"/><path class="cls-1" d="M38.89,26.36h8.35v2.87a17.12,17.12,0,0,1,4.12-2.94,11.39,11.39,0,0,1,4.56-.8,11.63,11.63,0,0,1,9.69,4.6,13.3,13.3,0,0,1,10.64-4.6q12.21,0,12.21,12.75V57.46H80.07V40.18c0-3-.42-5.08-1.26-6.32A4.81,4.81,0,0,0,74.55,32a5.73,5.73,0,0,0-5,2.24Q67.94,36.45,68,41.4V57.46H59.56V40.28Q59.56,32,54,32a5.88,5.88,0,0,0-5.14,2.27q-1.6,2.26-1.61,7.16V57.46H38.89Z"/><path class="cls-1" d="M98.27,26.36l9.46,17.75,10.21-20.6,10.27,20.6,9.35-17.75h9.35L128,59.79l-10-20-10.17,20L88.88,26.36Z"/><path class="cls-1" d="M174.81,43.6H148.92a8.78,8.78,0,0,0,2.89,6.1,10.86,10.86,0,0,0,11.72,1,19.17,19.17,0,0,0,4.57-4.73l7.05,3.39a25.12,25.12,0,0,1-3.45,4.1,17.67,17.67,0,0,1-3.9,2.81,17.13,17.13,0,0,1-4.49,1.61,25.22,25.22,0,0,1-5.23.51q-8.09,0-13-4.47a15.46,15.46,0,0,1-4.9-11.94A15.79,15.79,0,0,1,145,30q4.78-4.52,12.69-4.51t12.61,4.38q4.6,4.35,4.6,12Zm-8.57-5.88Q164.5,32,157.82,32a9.72,9.72,0,0,0-2.85.41,8.43,8.43,0,0,0-2.44,1.15,7.72,7.72,0,0,0-3.06,4.19Z"/><path class="cls-1" d="M182.79,3.52V30a16.6,16.6,0,0,1,11.35-4.47,16.83,16.83,0,0,1,12.18,4.7,15.44,15.44,0,0,1,4.86,11.62,15.78,15.78,0,0,1-4.9,11.88,17.87,17.87,0,0,1-23.49.51v3.26h-8.35V3.52Zm19.85,38.61a9.83,9.83,0,0,0-2.82-7.28A9.66,9.66,0,0,0,192.66,32a10.37,10.37,0,0,0-7.49,2.78,9.48,9.48,0,0,0-2.86,7.16,9.6,9.6,0,0,0,2.82,7.25,10.14,10.14,0,0,0,7.42,2.78,9.92,9.92,0,0,0,7.2-2.78A9.4,9.4,0,0,0,202.64,42.13Z"/></g></svg>