<?xml version="1.0" encoding="UTF-8" standalone="no"?>
<svg
   xmlns:dc="http://purl.org/dc/elements/1.1/"
   xmlns:cc="http://creativecommons.org/ns#"
   xmlns:rdf="http://www.w3.org/1999/02/22-rdf-syntax-ns#"
   xmlns:svg="http://www.w3.org/2000/svg"
   xmlns="http://www.w3.org/2000/svg"
   xmlns:sodipodi="http://sodipodi.sourceforge.net/DTD/sodipodi-0.dtd"
   xmlns:inkscape="http://www.inkscape.org/namespaces/inkscape"
   viewBox="0 0 16 16"
   version="1.1"
   id="svg11"
   sodipodi:docname="QuestionMark.svg"
   inkscape:version="0.92.4 (5da689c313, 2019-01-14)">
  <metadata
     id="metadata15">
    <rdf:RDF>
      <cc:Work
         rdf:about="">
        <dc:format>image/svg+xml</dc:format>
        <dc:type
           rdf:resource="http://purl.org/dc/dcmitype/StillImage" />
      </cc:Work>
    </rdf:RDF>
  </metadata>
  <sodipodi:namedview
     pagecolor="#ffffff"
     bordercolor="#666666"
     borderopacity="1"
     objecttolerance="10"
     gridtolerance="10"
     guidetolerance="10"
     inkscape:pageopacity="0"
     inkscape:pageshadow="2"
     inkscape:window-width="1920"
     inkscape:window-height="1027"
     id="namedview13"
     showgrid="false"
     inkscape:zoom="59"
     inkscape:cx="9.5892349"
     inkscape:cy="7.8481339"
     inkscape:window-x="-8"
     inkscape:window-y="-8"
     inkscape:window-maximized="1"
     inkscape:current-layer="svg11" />
  <defs
     id="defs4">
    <style
       id="style2">.cls-1{fill:#262424;fill-rule:evenodd;}</style>
  </defs>
  <title
     id="title6">QuestionMark</title>
  <g
     id="Camada_1"
     data-name="Camada 1">
    <path
       class="cls-1"
       d="M8,1a7,7,0,1,0,7,7A7,7,0,0,0,8,1ZM8,13.6A5.6,5.6,0,1,1,13.6,8,5.6,5.6,0,0,1,8,13.6ZM5.53,5.78A2.4,2.4,0,0,1,6.89,4.37,2.85,2.85,0,0,1,8,4.17a3.48,3.48,0,0,1,1.29.21,2.82,2.82,0,0,1,.83.53,2.06,2.06,0,0,1,.45.68,1.94,1.94,0,0,1,.13.68,2.36,2.36,0,0,1-.13.86,2.61,2.61,0,0,1-.34.57,2.17,2.17,0,0,1-.45.41l-.46.34a2.28,2.28,0,0,0-.38.38,1.08,1.08,0,0,0-.21.54v.42H7.23V9.3a2.13,2.13,0,0,1,.18-.78A2.37,2.37,0,0,1,7.75,8a3,3,0,0,1,.41-.39l.41-.32a1.39,1.39,0,0,0,.29-.36A.91.91,0,0,0,9,6.42a1,1,0,0,0-.25-.74A.92.92,0,0,0,8,5.44a1,1,0,0,0-.5.12.92.92,0,0,0-.35.3,1.32,1.32,0,0,0-.2.45,2.35,2.35,0,0,0-.06.54H5.33A3,3,0,0,1,5.53,5.78Zm3.32,5.5h0a.83.83,0,0,1-.83.83H8a.83.83,0,0,1-.83-.83h0A.83.83,0,0,1,8,10.44H8A.83.83,0,0,1,8.85,11.28Z"
       id="path8" />
  </g>
  <path
     style="fill:#808080;stroke-width:0.01694915"
     d=""
     id="path25"
     inkscape:connector-curvature="0" />
  <path
     style="fill:#808080;stroke-width:0.01694915"
     d=""
     id="path27"
     inkscape:connector-curvature="0" />
</svg>
