<svg xmlns="http://www.w3.org/2000/svg" viewBox="0 0 30 60"><defs><style>.cls-1{fill:#262424;}</style></defs><title>RockingHand</title><g id="Camada_1" data-name="Camada 1"><path class="cls-1" d="M20.79,26.32l.15.06.23.1.12.06.31.19h0v-.65h0V21.56a2.89,2.89,0,0,0-5.77,0v4.23l4.14.36A3.07,3.07,0,0,1,20.79,26.32Z"/><path class="cls-1" d="M10.68,25.37h.05c.1,0,.2,0,.31,0l.21,0h.14l3.51.31V19a2.89,2.89,0,1,0-5.77,0v6.71a4.84,4.84,0,0,1,1.25-.29Z"/><path class="cls-1" d="M7,27.2a4.91,4.91,0,0,1,1.17-1.06V4.92a2.89,2.89,0,0,0-5.77,0v29.7l4-6.47A4.44,4.44,0,0,1,7,27.2Z"/><path class="cls-1" d="M2.59,43.62l.08.06,5.18,5L5.18,58H26.71l-.94-9.87,3-12.26A5.57,5.57,0,0,0,29,34.19a5.67,5.67,0,0,0-.18-1.38v0c-.17-.77-.34-1.55-.51-2.31-.31-1.38-.59-2.78-.94-4.15A14.27,14.27,0,0,1,27,24.19a47.28,47.28,0,0,1-.1-4.77V11.7a2.18,2.18,0,1,0-4.35,0v16A3.23,3.23,0,0,1,23,29.07s0,.07,0,.11a4.17,4.17,0,0,1,0,.5,3.29,3.29,0,0,1-1.14,2.25,3,3,0,0,1-.52.36l-.09.05-.18.09-.11,0-.17.06-.12,0-.17.05-.12,0-.18,0h-.12l-.2,0h-.41l-6.22-.5-1.91,2.6a13.42,13.42,0,0,1,6.71.27,3.39,3.39,0,0,1,.41.15h0l.36.16s.05,0,.08,0l.32.15.1.06a2.69,2.69,0,0,1,.29.16l.12.07.27.17.13.09a1.44,1.44,0,0,1,.25.18l.14.1.25.2.12.1.36.34a.4.4,0,0,1,0,.57h0a.42.42,0,0,1-.29.12h0a.4.4,0,0,1-.15,0,.42.42,0,0,1-.14-.09c-.16-.16-.34-.31-.51-.46l-.09-.07-.53-.38-.08,0c-3.4-2.17-7.83-1.09-8-1l-1,.25a.41.41,0,0,1-.43-.17.39.39,0,0,1,0-.47l2.15-2.94.55-.76a.42.42,0,0,1,.36-.16l1,.07,1.79.15,3.7.29a2.46,2.46,0,0,0,1.8-.59,3.44,3.44,0,0,0,.27-.27h0a2.47,2.47,0,0,0,.59-1.42,1.31,1.31,0,0,0,0-.28v-.07a.13.13,0,0,0,0-.06.77.77,0,0,0,0-.15.28.28,0,0,0,0-.09s0-.07,0-.1h0l0-.08a.24.24,0,0,0,0-.08,2.57,2.57,0,0,0-.48-.87h0A2.51,2.51,0,0,0,19.92,27l-4.08-.35-4.55-.4h-.55l-.27,0-.38.05-.2.05-.15,0-.26.09-.06,0-.29.11h0a4.07,4.07,0,0,0-1.23.86c-.09.1-.18.19-.26.29a4.16,4.16,0,0,0-.49.81l0,0L1.66,37.39a3.45,3.45,0,0,0-.31.75A5.19,5.19,0,0,0,1,39.93a5.08,5.08,0,0,0,1.51,3.62Z"/></g></svg>