<svg xmlns="http://www.w3.org/2000/svg" viewBox="0 0 30 30"><defs><style>.cls-1{fill:#262424;fill-rule:evenodd;}</style></defs><title>Tools</title><g id="Camada_1" data-name="Camada 1"><path class="cls-1" d="M25.53,17.34l-2.82.35a7,7,0,0,1-.36.85l1.75,2.23a.54.54,0,0,1,0,.71L21.5,24a.54.54,0,0,1-.71,0l-2.24-1.74a9.11,9.11,0,0,1-.86.35l-.35,2.81a.53.53,0,0,1-.53.47H13.19a.53.53,0,0,1-.53-.47l-.35-2.81a8.14,8.14,0,0,1-.86-.35L9.21,24.08a.54.54,0,0,1-.71,0L5.94,21.48a.54.54,0,0,1,0-.71l1.74-2.23a8.93,8.93,0,0,1-.35-.85l-2.82-.35A.54.54,0,0,1,4,16.81V13.19a.53.53,0,0,1,.47-.53l2.82-.35a8.93,8.93,0,0,1,.35-.85L5.9,9.23a.53.53,0,0,1,0-.71L8.5,6a.54.54,0,0,1,.71,0l2.24,1.74a8.14,8.14,0,0,1,.86-.35l.35-2.81A.53.53,0,0,1,13.19,4h3.62a.55.55,0,0,1,.54.47l.34,2.81a9.11,9.11,0,0,1,.86.35l2.24-1.74a.54.54,0,0,1,.71,0l2.56,2.56a.53.53,0,0,1,0,.71l-1.75,2.23a7,7,0,0,1,.36.85l2.82.35a.53.53,0,0,1,.47.53v3.62A.54.54,0,0,1,25.53,17.34Zm-.6-3.68-2.69-.33a.53.53,0,0,1-.45-.37,6.83,6.83,0,0,0-.54-1.3.55.55,0,0,1,.05-.59L23,8.94l-1.9-1.88L18.94,8.72a.55.55,0,0,1-.59,0,6.15,6.15,0,0,0-1.3-.54.54.54,0,0,1-.38-.45L16.34,5.1H13.66l-.33,2.68a.54.54,0,0,1-.38.45,6.15,6.15,0,0,0-1.3.54.55.55,0,0,1-.59,0L8.93,7.05,7,8.94,8.7,11.07a.55.55,0,0,1,.05.59A7.11,7.11,0,0,0,8.21,13a.53.53,0,0,1-.45.37l-2.69.33v2.68l2.69.33a.53.53,0,0,1,.45.37,7.42,7.42,0,0,0,.54,1.3.55.55,0,0,1-.05.59L7,21.06,8.93,23l2.13-1.67a.55.55,0,0,1,.59-.05,7.42,7.42,0,0,0,1.3.54.54.54,0,0,1,.38.45l.33,2.68h2.68l.33-2.68a.54.54,0,0,1,.38-.45,7.42,7.42,0,0,0,1.3-.54.55.55,0,0,1,.59.05L21.07,23,23,21.06,21.3,18.93a.55.55,0,0,1-.05-.59,7.42,7.42,0,0,0,.54-1.3.53.53,0,0,1,.45-.37l2.69-.33ZM15,19.34A4.34,4.34,0,1,1,19.35,15,4.35,4.35,0,0,1,15,19.34Zm0-7.61A3.27,3.27,0,1,0,18.28,15,3.28,3.28,0,0,0,15,11.73Z"/></g></svg>